<mxfile host="app.diagrams.net" modified="2023-02-22T07:30:43.042Z" agent="5.0 (Windows NT 10.0; Win64; x64) AppleWebKit/537.36 (KHTML, like Gecko) Chrome/110.0.0.0 Safari/537.36" etag="S_VlnRtXUXJohL7LMJ55" version="20.8.21" type="github">
  <diagram id="Z87XCZslrCXwQrkr19RX" name="Page-1">
    <mxGraphModel dx="2261" dy="707" grid="1" gridSize="10" guides="1" tooltips="1" connect="1" arrows="1" fold="1" page="1" pageScale="1" pageWidth="827" pageHeight="1169" math="0" shadow="0">
      <root>
        <mxCell id="0" />
        <mxCell id="1" parent="0" />
        <mxCell id="S6yvC7qdEsfKQvKiLP5z-28" value="" style="rounded=0;whiteSpace=wrap;html=1;" parent="1" vertex="1">
          <mxGeometry x="-780" y="42.720000000000006" width="1210" height="578.91" as="geometry" />
        </mxCell>
        <mxCell id="S6yvC7qdEsfKQvKiLP5z-32" value="" style="endArrow=none;dashed=1;html=1;dashPattern=1 3;strokeWidth=2;rounded=0;entryX=0.5;entryY=1;entryDx=0;entryDy=0;startArrow=none;" parent="1" source="S6yvC7qdEsfKQvKiLP5z-33" target="S6yvC7qdEsfKQvKiLP5z-30" edge="1">
          <mxGeometry width="50" height="50" relative="1" as="geometry">
            <mxPoint x="-631.3000000000001" y="640" as="sourcePoint" />
            <mxPoint x="-631.3000000000001" y="270" as="targetPoint" />
          </mxGeometry>
        </mxCell>
        <mxCell id="S6yvC7qdEsfKQvKiLP5z-27" value="" style="rounded=0;whiteSpace=wrap;html=1;" parent="1" vertex="1">
          <mxGeometry x="-730" y="70" width="175" height="40" as="geometry" />
        </mxCell>
        <mxCell id="S6yvC7qdEsfKQvKiLP5z-3" value="RoomModule/&lt;br&gt;Krpanoroom.js" style="rounded=0;whiteSpace=wrap;html=1;" parent="1" vertex="1">
          <mxGeometry x="-220" y="190" width="111.75" height="30" as="geometry" />
        </mxCell>
        <mxCell id="S6yvC7qdEsfKQvKiLP5z-6" value="" style="endArrow=none;dashed=1;html=1;dashPattern=1 3;strokeWidth=2;rounded=0;entryX=0.5;entryY=1;entryDx=0;entryDy=0;startArrow=none;" parent="1" source="QYz8oIN1GEiqAUlNkPk4-4" target="S6yvC7qdEsfKQvKiLP5z-3" edge="1">
          <mxGeometry width="50" height="50" relative="1" as="geometry">
            <mxPoint x="-187.75" y="690" as="sourcePoint" />
            <mxPoint x="-41.5" y="280" as="targetPoint" />
          </mxGeometry>
        </mxCell>
        <mxCell id="S6yvC7qdEsfKQvKiLP5z-9" value="" style="endArrow=none;html=1;rounded=0;" parent="1" edge="1">
          <mxGeometry width="50" height="50" relative="1" as="geometry">
            <mxPoint x="-745" y="180" as="sourcePoint" />
            <mxPoint x="-250" y="180" as="targetPoint" />
          </mxGeometry>
        </mxCell>
        <mxCell id="S6yvC7qdEsfKQvKiLP5z-10" value="" style="endArrow=none;html=1;rounded=0;" parent="1" edge="1">
          <mxGeometry width="50" height="50" relative="1" as="geometry">
            <mxPoint x="-191.5" y="180" as="sourcePoint" />
            <mxPoint x="343.19" y="180" as="targetPoint" />
          </mxGeometry>
        </mxCell>
        <mxCell id="S6yvC7qdEsfKQvKiLP5z-11" value="Client" style="text;strokeColor=none;align=center;fillColor=none;html=1;verticalAlign=middle;whiteSpace=wrap;rounded=0;" parent="1" vertex="1">
          <mxGeometry x="-745" y="130" width="60" height="30" as="geometry" />
        </mxCell>
        <mxCell id="S6yvC7qdEsfKQvKiLP5z-12" value="Server" style="text;strokeColor=none;align=center;fillColor=none;html=1;verticalAlign=middle;whiteSpace=wrap;rounded=0;" parent="1" vertex="1">
          <mxGeometry x="-210" y="130" width="60" height="30" as="geometry" />
        </mxCell>
        <mxCell id="S6yvC7qdEsfKQvKiLP5z-26" value="Krpanoroom&amp;nbsp; :&amp;nbsp;&lt;br&gt;publish global (同步環景)" style="text;strokeColor=none;align=center;fillColor=none;html=1;verticalAlign=middle;whiteSpace=wrap;rounded=0;" parent="1" vertex="1">
          <mxGeometry x="-717.5" y="75" width="150" height="30" as="geometry" />
        </mxCell>
        <mxCell id="S6yvC7qdEsfKQvKiLP5z-30" value="RoomModule/&lt;br&gt;KrpanoroomClient" style="rounded=0;whiteSpace=wrap;html=1;" parent="1" vertex="1">
          <mxGeometry x="-520.0000000000001" y="190" width="150.01" height="30" as="geometry" />
        </mxCell>
        <mxCell id="S6yvC7qdEsfKQvKiLP5z-33" value="" style="rounded=0;whiteSpace=wrap;html=1;rotation=90;" parent="1" vertex="1">
          <mxGeometry x="-507.47" y="333.93" width="124.95" height="20" as="geometry" />
        </mxCell>
        <mxCell id="QYz8oIN1GEiqAUlNkPk4-4" value="" style="rounded=0;whiteSpace=wrap;html=1;rotation=90;spacing=4;" parent="1" vertex="1">
          <mxGeometry x="-235.04" y="355.41" width="141.81" height="20" as="geometry" />
        </mxCell>
        <mxCell id="MCn9pfl6cx8tljpHCmL5-1" value="" style="endArrow=classic;html=1;rounded=0;entryX=1;entryY=1;entryDx=0;entryDy=0;exitX=0;exitY=1;exitDx=0;exitDy=0;" parent="1" source="MCn9pfl6cx8tljpHCmL5-3" target="MCn9pfl6cx8tljpHCmL5-3" edge="1">
          <mxGeometry width="50" height="50" relative="1" as="geometry">
            <mxPoint x="-738.96" y="286.8399999999999" as="sourcePoint" />
            <mxPoint x="-300" y="331" as="targetPoint" />
          </mxGeometry>
        </mxCell>
        <mxCell id="MCn9pfl6cx8tljpHCmL5-3" value="1. &lt;br&gt;call publishGlobal()" style="text;strokeColor=none;align=center;fillColor=none;html=1;verticalAlign=middle;whiteSpace=wrap;rounded=0;" parent="1" vertex="1">
          <mxGeometry x="-690" y="262.82" width="230" height="30" as="geometry" />
        </mxCell>
        <mxCell id="MCn9pfl6cx8tljpHCmL5-5" value="frontend UI&lt;br&gt;(teacher)" style="rounded=0;whiteSpace=wrap;html=1;" parent="1" vertex="1">
          <mxGeometry x="-745" y="190" width="85" height="30" as="geometry" />
        </mxCell>
        <mxCell id="MCn9pfl6cx8tljpHCmL5-6" value="" style="rounded=0;whiteSpace=wrap;html=1;rotation=90;spacing=4;" parent="1" vertex="1">
          <mxGeometry x="-770" y="332" width="135" height="20" as="geometry" />
        </mxCell>
        <mxCell id="MCn9pfl6cx8tljpHCmL5-7" value="" style="endArrow=none;dashed=1;html=1;dashPattern=1 3;strokeWidth=2;rounded=0;entryX=0.5;entryY=1;entryDx=0;entryDy=0;exitX=0;exitY=0.5;exitDx=0;exitDy=0;" parent="1" source="MCn9pfl6cx8tljpHCmL5-6" target="MCn9pfl6cx8tljpHCmL5-5" edge="1">
          <mxGeometry width="50" height="50" relative="1" as="geometry">
            <mxPoint x="-350" y="350" as="sourcePoint" />
            <mxPoint x="-300" y="300" as="targetPoint" />
          </mxGeometry>
        </mxCell>
        <mxCell id="0DKkQV_DlRvVZHHdh2dW-1" value="" style="endArrow=classic;html=1;rounded=0;exitX=0;exitY=1;exitDx=0;exitDy=0;entryX=1;entryY=1;entryDx=0;entryDy=0;" edge="1" parent="1" source="0DKkQV_DlRvVZHHdh2dW-2" target="0DKkQV_DlRvVZHHdh2dW-2">
          <mxGeometry width="50" height="50" relative="1" as="geometry">
            <mxPoint x="-210" y="370" as="sourcePoint" />
            <mxPoint x="-170" y="330" as="targetPoint" />
          </mxGeometry>
        </mxCell>
        <mxCell id="0DKkQV_DlRvVZHHdh2dW-2" value="this.namespace.emit(&#39;publish&#39;, channelName" style="text;strokeColor=none;align=center;fillColor=none;html=1;verticalAlign=middle;whiteSpace=wrap;rounded=0;" vertex="1" parent="1">
          <mxGeometry x="-432.31" y="279.99999999999994" width="260" height="30" as="geometry" />
        </mxCell>
        <mxCell id="0DKkQV_DlRvVZHHdh2dW-3" value="" style="endArrow=classic;html=1;rounded=0;exitX=0.25;exitY=0;exitDx=0;exitDy=0;" edge="1" parent="1" source="QYz8oIN1GEiqAUlNkPk4-4">
          <mxGeometry width="50" height="50" relative="1" as="geometry">
            <mxPoint x="-230" y="380" as="sourcePoint" />
            <mxPoint x="-154" y="360" as="targetPoint" />
            <Array as="points">
              <mxPoint x="-80" y="330" />
              <mxPoint x="-80" y="360" />
            </Array>
          </mxGeometry>
        </mxCell>
        <mxCell id="0DKkQV_DlRvVZHHdh2dW-4" value="addChannel(channelName, publisherId)" style="text;strokeColor=none;align=center;fillColor=none;html=1;verticalAlign=middle;whiteSpace=wrap;rounded=0;" vertex="1" parent="1">
          <mxGeometry x="-70" y="328.93" width="240" height="30" as="geometry" />
        </mxCell>
        <mxCell id="0DKkQV_DlRvVZHHdh2dW-6" value="" style="endArrow=classic;html=1;rounded=0;exitX=1;exitY=1;exitDx=0;exitDy=0;entryX=0;entryY=1;entryDx=0;entryDy=0;" edge="1" parent="1" source="0DKkQV_DlRvVZHHdh2dW-7" target="0DKkQV_DlRvVZHHdh2dW-7">
          <mxGeometry width="50" height="50" relative="1" as="geometry">
            <mxPoint x="-220" y="370" as="sourcePoint" />
            <mxPoint x="-170" y="320" as="targetPoint" />
          </mxGeometry>
        </mxCell>
        <mxCell id="0DKkQV_DlRvVZHHdh2dW-7" value="this.namespace.emit(&#39;new-publisher&#39;)" style="text;strokeColor=none;align=center;fillColor=none;html=1;verticalAlign=middle;whiteSpace=wrap;rounded=0;" vertex="1" parent="1">
          <mxGeometry x="-432.31" y="355.41" width="252.31" height="30" as="geometry" />
        </mxCell>
        <mxCell id="0DKkQV_DlRvVZHHdh2dW-8" value="callback" style="text;strokeColor=none;align=center;fillColor=none;html=1;verticalAlign=middle;whiteSpace=wrap;rounded=0;" vertex="1" parent="1">
          <mxGeometry x="-30" y="460" width="252.31" height="30" as="geometry" />
        </mxCell>
        <mxCell id="0DKkQV_DlRvVZHHdh2dW-9" value="" style="endArrow=classic;html=1;rounded=0;exitX=1;exitY=1;exitDx=0;exitDy=0;entryX=0;entryY=1;entryDx=0;entryDy=0;" edge="1" parent="1" source="0DKkQV_DlRvVZHHdh2dW-8" target="0DKkQV_DlRvVZHHdh2dW-8">
          <mxGeometry width="50" height="50" relative="1" as="geometry">
            <mxPoint x="-220" y="260" as="sourcePoint" />
            <mxPoint x="-170" y="210" as="targetPoint" />
          </mxGeometry>
        </mxCell>
      </root>
    </mxGraphModel>
  </diagram>
</mxfile>
